# xmcd
#
# Track frame offsets:
#	150
#	11742
#	21650
#	34637
#	45777
#	56017
#	67665
#	77802
#	89172
#	101397
#	113055
#	123845
#	134587
#	145672
#	155452
#	165222
#	176070
#	186977
#	197265
#	209200
#	222312
#	235062
#	246457
#	257232
#	269582
#	284840
#	296590
#	308112
#	319212
#	332012
#	343912
#
# Disc length: 4713 seconds
#
# Revision: 1
# Processed by: cddbd v1.5.2PL0 Copyright (c) Steve Scherf et al.
# Submitted via: EasyCDDAExtractor 8.2.3.1
#
DISCID=da12671f
DTITLE=Stonewall Jackson - Waterloo Cd 3
DYEAR=1900
DGENRE=Country
TTITLE0=The Water's So Cold
TTITLE1=Picket Sign
TTITLE2=Wild Wild Wild
TTITLE3=Give It Back To The Indians
TTITLE4=Not My Kind Of People
TTITLE5=Mamma's Bible
TTITLE6=Trouble And Me
TTITLE7=There´S A Limit
TTITLE8=I Washed My Hands In Muddy Water
TTITLE9=You Saw Me Off (But Will You See In Me)
TTITLE10=It's Not Me
TTITLE11=I Could Have Gane Right
TTITLE12=State Side
TTITLE13=I´Ve Got To Change
TTITLE14=Lost In The Shuffle
TTITLE15=Neons
TTITLE16=Poor Red Georgia Dirt
TTITLE17=All Together Now
TTITLE18=If This House Could Talk
TTITLE19=Touch Me Not
TTITLE20=I Wish I Had A Girl
TTITLE21=The Minute Men (Are Tuning In Their Graves)
TTITLE22=This One Gets My Vote
TTITLE23=Blues Plus Booze (Means I Lose)
TTITLE24=Wedding Bells
TTITLE25=The Best I Have (Is Not Enough For You)
TTITLE26=Still Awake
TTITLE27=Thankful For Your Love
TTITLE28=Mammy Look  Santa Is Crying
TTITLE29=Blue Christmas
TTITLE30=The Wine Flowed Freely
EXTD=
EXTT0=
EXTT1=
EXTT2=
EXTT3=
EXTT4=
EXTT5=
EXTT6=
EXTT7=
EXTT8=
EXTT9=
EXTT10=
EXTT11=
EXTT12=
EXTT13=
EXTT14=
EXTT15=
EXTT16=
EXTT17=
EXTT18=
EXTT19=
EXTT20=
EXTT21=
EXTT22=
EXTT23=
EXTT24=
EXTT25=
EXTT26=
EXTT27=
EXTT28=
EXTT29=
EXTT30=
PLAYORDER=
